<svg xmlns="http://www.w3.org/2000/svg" width="753.923" height="964.453" viewBox="0 0 753.923 964.453">
  <g id="backgroud" transform="translate(0 -24.85)">
    <path id="Path_1" data-name="Path 1" d="M.24,837.5c27.76,2.5,54.31,4.32,79.15-8.34,15.55-7.91,27.77-21,39.3-34.06C175.21,731,225.14,658.24,297.58,612.84c72.68-45.55,160.51-58.77,245.75-68.31,27.35-3.06,54.86-5.87,81.47-12.87a265,265,0,0,0,75.23-33c15.33-9.81,29.94-21.54,39.52-37,17.94-29,15.52-65.71,11.55-99.56-3-25.22-6.7-51.17-19.78-72.94-16.56-27.56-45.83-44.74-74.89-58.52-58.1-27.57-122.54-47.82-166.46-94.8C468.58,113,452.83,84.4,427.39,66.14a104.59,104.59,0,0,0-66.46-19.28C334.59,48.39,310,59.8,284.93,68,190.85,98.67,82.64,82.18,2,24.85Z" fill="#f1f1f1" opacity="0.5"/>
    <path id="Path_2" data-name="Path 2" d="M0,971.5c27.76,2.51,54.31,4.32,79.15-8.34,15.54-7.91,27.77-21,39.3-34.06C175,865,224.9,792.24,297.34,746.84c72.68-45.55,160.51-58.77,245.75-68.31,27.35-3.06,54.86-5.87,81.47-12.87a265,265,0,0,0,75.23-33c15.33-9.81,29.94-21.54,39.52-37,17.94-29,15.52-65.71,11.55-99.56-3-25.22-6.7-51.17-19.78-72.94-16.56-27.56-45.83-44.74-74.89-58.52-58.1-27.57-122.54-47.82-166.46-94.8-21.39-22.88-37.14-51.44-62.58-69.7a104.6,104.6,0,0,0-66.41-19.29c-26.39,1.53-51,12.94-76,21.15-94.13,30.67-202.34,14.18-283-43.15Z" fill="#f1f1f1"/>
    <circle id="Ellipse_5" data-name="Ellipse 5" cx="6" cy="6" r="6" transform="translate(235.74 49)" fill="#0088fe"/>
    <circle id="Ellipse_6" data-name="Ellipse 6" cx="16" cy="16" r="16" transform="translate(179.74 629)" fill="#fee28a"/>
  </g>
</svg>
