<svg xmlns="http://www.w3.org/2000/svg" xmlns:xlink="http://www.w3.org/1999/xlink" width="873.946" height="594" viewBox="0 0 873.946 594">
  <defs>
    <filter id="Union_1" x="0" y="0" width="873.946" height="594" filterUnits="userSpaceOnUse">
      <feOffset dx="1" input="SourceAlpha"/>
      <feGaussianBlur stdDeviation="3" result="blur"/>
      <feFlood flood-opacity="0.02"/>
      <feComposite operator="in" in2="blur"/>
      <feComposite in="SourceGraphic"/>
    </filter>
  </defs>
  <g transform="matrix(1, 0, 0, 1, 0, 0)" filter="url(#Union_1)">
    <path id="Union_1-2" data-name="Union 1" d="M340.351,448.061c-45.057-10.445-87.118-23.679-125.16-39.39-40.756-16.831-76.34-36.27-105.765-57.777-29.861-21.826-52.987-45.5-68.733-70.372-16.262-25.686-24.509-52.445-24.509-79.535a135.324,135.324,0,0,1,3.252-29.369,148.577,148.577,0,0,1,9.535-28.473,178.254,178.254,0,0,1,15.485-27.418,224.935,224.935,0,0,1,21.1-26.2C81.287,72.646,100.715,56.45,123.3,41.386A513.951,513.951,0,0,1,199.55,0H852.129a20,20,0,0,1,20,20V237.281l-.013-.013V468.546C818.127,533.1,722.639,576,613.857,576,493.93,576,390.173,523.875,340.351,448.061Z" transform="translate(-8.18 9)" fill="rgba(255,200,92,0.06)"/>
  </g>
</svg>
