<svg xmlns="http://www.w3.org/2000/svg" width="61.378" height="64.086" viewBox="0 0 61.378 64.086">
  <g id="Icon_feather-package" data-name="Icon feather-package" transform="translate(-2.851 -1.427)">
    <path id="Path_3" data-name="Path 3" d="M67.81,8.366H10.559" transform="translate(-6 11.358)" fill="#f13649" stroke="#fff" stroke-linecap="round" stroke-linejoin="round" stroke-width="3"/>
    <path id="Path_4" data-name="Path 4" d="M62.58,45.626V21.266A6.036,6.036,0,0,0,59.353,16L36.766,3.819a6.788,6.788,0,0,0-6.453,0L7.727,16A6.036,6.036,0,0,0,4.5,21.266V45.626a6.036,6.036,0,0,0,3.227,5.268l22.587,12.18a6.788,6.788,0,0,0,6.453,0l22.587-12.18A6.036,6.036,0,0,0,62.58,45.626Z" transform="translate(0)" fill="#f13649" stroke="#fff" stroke-linecap="round" stroke-linejoin="round" stroke-width="3"/>
    <path id="Path_5" data-name="Path 5" d="M4.9,10.44l28.635,16.9,28.635-16.9" transform="translate(0 10.192)" fill="#f13649" stroke="#fff" stroke-linecap="round" stroke-linejoin="round" stroke-width="3"/>
    <path id="Path_6" data-name="Path 6" d="M18,44.479V18" transform="translate(15.54 19.533)" fill="#f13649" stroke="#fff" stroke-linecap="round" stroke-linejoin="round" stroke-width="3"/>
  </g>
</svg>
